<?xml version="1.0" encoding="UTF-8"?>
<svg version="1.1" xmlns="http://www.w3.org/2000/svg" width="244" height="207">
<path d="M0 0 C80.52 0 161.04 0 244 0 C244 68.31 244 136.62 244 207 C163.48 207 82.96 207 0 207 C0 138.69 0 70.38 0 0 Z " fill="#EA2930" transform="translate(0,0)"/>
<path d="M0 0 C80.52 0 161.04 0 244 0 C244 68.31 244 136.62 244 207 C163.48 207 82.96 207 0 207 C0 138.69 0 70.38 0 0 Z M17.4375 25.91796875 C8.81856954 36.87591817 2.8637236 49.94486137 2 64 C1.94714844 64.78503906 1.89429687 65.57007813 1.83984375 66.37890625 C1.05052231 89.40650142 10.8475786 116.62371575 26 134 C26.64195313 134.74894531 27.28390625 135.49789062 27.9453125 136.26953125 C38.04974244 147.76830009 48.7520583 157.83709093 61 167 C61.59683594 167.4522998 62.19367187 167.90459961 62.80859375 168.37060547 C75.85456114 178.24976949 89.55825738 186.98673099 103.5625 195.4375 C104.38322998 195.9337085 105.20395996 196.42991699 106.04956055 196.94116211 C108.35318641 198.31835275 110.67285988 199.66302423 113 201 C113.71140137 201.43070801 114.42280273 201.86141602 115.15576172 202.30517578 C118.33219064 204.1061816 120.13674556 205.11239047 123.8203125 204.6328125 C128.59133184 202.18282959 133.25231097 199.59479804 137.875 196.875 C139.44664917 195.95315918 139.44664917 195.95315918 141.05004883 195.01269531 C157.32806981 185.35585131 173.33544862 174.99644559 188 163 C188.50966309 162.59040039 189.01932617 162.18080078 189.54443359 161.75878906 C214.54669327 141.62510801 237.20970708 115.21600785 241 82 C242.08111871 59.56624294 239.5737043 40.89224419 224.359375 23.45703125 C212.34080643 10.94100537 195.58693256 2.20043357 178.07714844 1.70361328 C161.55248552 1.57542478 148.45132888 4.98749489 136.25390625 16.63671875 C127.32347177 25.66832216 127.32347177 25.66832216 123 37 C122.34 37 121.68 37 121 37 C120.74476562 36.12085938 120.48953125 35.24171875 120.2265625 34.3359375 C116.16298268 23.28403569 106.14299871 13.04698545 95.95703125 7.3203125 C68.47673937 -4.94961968 36.92644852 3.7255228 17.4375 25.91796875 Z " fill="#FEFDFD" transform="translate(0,0)"/>
<path d="M0 0 C1.32979529 3.98938586 0.18256074 5.99243306 -1 10 C-3.52840541 25.17043249 -0.42909774 39.22850206 3 54 C2.34 53.67 1.68 53.34 1 53 C1 52.01 1 51.02 1 50 C0.34 50 -0.32 50 -1 50 C-1 51.65 -1 53.3 -1 55 C-2.98 55.495 -2.98 55.495 -5 56 C-5 38.51 -5 21.02 -5 3 C-4.01 3 -3.02 3 -2 3 C-1.34 2.01 -0.68 1.02 0 0 Z " fill="#F9F6F4" transform="translate(5,46)"/>
<path d="M0 0 C0.598125 0.20625 1.19625 0.4125 1.8125 0.625 C1.791875 1.3675 1.77125 2.11 1.75 2.875 C1.70911603 5.52373996 1.70911603 5.52373996 2.3125 7.625 C2.90758274 10.00533098 2.880385 12.18114004 2.8125 14.625 C5.1225 14.955 7.4325 15.285 9.8125 15.625 C10.8855756 18.8442268 10.61196725 19.52706442 9.8125 22.625 C10.1425 23.285 10.4725 23.945 10.8125 24.625 C10.64469837 27.32065202 10.20094355 29.94905554 9.8125 32.625 C6.2609763 28.50588118 3.72306402 24.15031224 1.1875 19.375 C0.79304687 18.66214844 0.39859375 17.94929688 -0.0078125 17.21484375 C-2.71676003 12.13556713 -4.21927609 7.29435927 -5.1875 1.625 C-2.1875 -0.375 -2.1875 -0.375 0 0 Z " fill="#E81E28" transform="translate(13.1875,96.375)"/>
<path d="M0 0 C14.52 0 29.04 0 44 0 C43.67 1.65 43.34 3.3 43 5 C42.46375 4.855625 41.9275 4.71125 41.375 4.5625 C25.8643287 0.88891995 9.46940097 2.40553849 -5 9 C-5.33 8.34 -5.66 7.68 -6 7 C-4.04783565 5.04783565 -2.46800047 4.15173355 0 3 C0 2.01 0 1.02 0 0 Z " fill="#FBF8F6" transform="translate(151,0)"/>
<path d="M0 0 C1.32 0.66 2.64 1.32 4 2 C4 3.32 4 4.64 4 6 C3.34 6 2.68 6 2 6 C2.33 6.99 2.66 7.98 3 9 C2.35933594 9.03738281 1.71867187 9.07476562 1.05859375 9.11328125 C-4.60006141 9.54337277 -8.92173813 10.46086906 -14 13 C-14 14.65 -14 16.3 -14 18 C-16.01822917 17.96744792 -18.03645833 17.93489583 -20.0546875 17.90234375 C-22.08185404 17.87350758 -22.08185404 17.87350758 -24 19 C-24.66 18.34 -25.32 17.68 -26 17 C-24.96101562 16.35933594 -23.92203125 15.71867188 -22.8515625 15.05859375 C-15.07897605 10.24548299 -7.40275109 5.37411257 0 0 Z " fill="#F8FAFB" transform="translate(172,174)"/>
<path d="M0 0 C-0.57344937 2.86724686 -0.8614515 3.8614515 -3 6 C-5.171875 5.79296875 -5.171875 5.79296875 -7.75 5.1875 C-19.62857836 2.47291691 -30.92055109 2.6443905 -43 4 C-43.33 3.01 -43.66 2.02 -44 1 C-39.82325338 0.85473529 -35.64641726 0.71247615 -31.46948242 0.57275391 C-30.05474221 0.52503545 -28.64002732 0.47655903 -27.2253418 0.42724609 C-18.14794868 0.11145464 -9.08422835 -0.07033707 0 0 Z " fill="#F8F3F1" transform="translate(96,0)"/>
<path d="M0 0 C0.33 0.99 0.66 1.98 1 3 C0.67 3.66 0.34 4.32 0 5 C0.99 5 1.98 5 3 5 C1.96232949 11.06732052 0.66038099 16.4373852 -2 22 C-2.66 22 -3.32 22 -4 22 C-4.21083827 7.94411516 -4.21083827 7.94411516 -3 2 C-2.01 1.34 -1.02 0.68 0 0 Z " fill="#E8202A" transform="translate(236,83)"/>
<path d="M0 0 C3 1 3 1 4.1875 3.0625 C4.455625 3.701875 4.72375 4.34125 5 5 C5.66 5 6.32 5 7 5 C5.77472971 9.05281712 4.30119506 12.44360764 2 16 C1.34 15.67 0.68 15.34 0 15 C-0.44921875 12.12890625 -0.44921875 12.12890625 -0.6875 8.5625 C-0.77386719 7.38816406 -0.86023438 6.21382813 -0.94921875 5.00390625 C-1 2 -1 2 0 0 Z " fill="#E61B24" transform="translate(225,104)"/>
<path d="M0 0 C0.33 0 0.66 0 1 0 C1.75 2.625 1.75 2.625 2 6 C0.25 9.0625 0.25 9.0625 -2 12 C-2.53625 12.94875 -3.0725 13.8975 -3.625 14.875 C-4.305625 15.926875 -4.305625 15.926875 -5 17 C-5.66 17 -6.32 17 -7 17 C-7.66 12.71 -8.32 8.42 -9 4 C-8.34 4 -7.68 4 -7 4 C-6.67 6.97 -6.34 9.94 -6 13 C-5.34 13 -4.68 13 -4 13 C-4 10.36 -4 7.72 -4 5 C-4.66 4.67 -5.32 4.34 -6 4 C-6 3.34 -6 2.68 -6 2 C-4 2 -2 2 0 2 C0 1.34 0 0.68 0 0 Z " fill="#EC3E40" transform="translate(127,35)"/>
<path d="M0 0 C2.46301423 2.46301423 2.76766521 4.27360036 3.625 7.625 C3.88539063 8.62789062 4.14578125 9.63078125 4.4140625 10.6640625 C4.60742188 11.43492188 4.80078125 12.20578125 5 13 C4.38125 13.144375 3.7625 13.28875 3.125 13.4375 C0.96741678 13.93152225 0.96741678 13.93152225 -1 15 C-1.41815082 13.25519803 -1.80873982 11.50377443 -2.1875 9.75 C-2.40792969 8.77546875 -2.62835938 7.8009375 -2.85546875 6.796875 C-3 4 -3 4 -1.55078125 1.640625 C-1.03902344 1.09921875 -0.52726563 0.5578125 0 0 Z " fill="#ED2D3B" transform="translate(235,41)"/>
<path d="M0 0 C0.33 0.99 0.66 1.98 1 3 C0.33333333 4.33333333 -0.33333333 5.66666667 -1 7 C-0.938125 7.804375 -0.87625 8.60875 -0.8125 9.4375 C-1.09029051 13.23397034 -3.27936403 14.46917584 -6 17 C-7.03357147 18.64605826 -8.04060332 20.30963442 -9 22 C-11.1385485 24.1385485 -12.13275314 24.42655063 -15 25 C-13.7934375 23.5459375 -13.7934375 23.5459375 -12.5625 22.0625 C-7.44580904 15.30159659 -3.8477197 7.52442963 0 0 Z " fill="#F8E9E3" transform="translate(231,111)"/>
<path d="M0 0 C0.7425 0.309375 1.485 0.61875 2.25 0.9375 C6.47814522 2.75534626 6.47814522 2.75534626 10.875 2.4375 C13.95488391 1.80340625 16.12445737 2.88899489 19 4 C17 6 17 6 15.02880859 6.22705078 C14.24328613 6.21657715 13.45776367 6.20610352 12.6484375 6.1953125 C11.37226562 6.18564453 11.37226562 6.18564453 10.0703125 6.17578125 C8.73613281 6.15064453 8.73613281 6.15064453 7.375 6.125 C6.02921875 6.11146484 6.02921875 6.11146484 4.65625 6.09765625 C2.43723414 6.0740497 0.21874923 6.0411231 -2 6 C-1.67 5.38125 -1.34 4.7625 -1 4.125 C0.14193235 2.08981656 0.14193235 2.08981656 0 0 Z " fill="#F7F5F3" transform="translate(114,201)"/>
<path d="M0 0 C0.66 1.32 1.32 2.64 2 4 C-1.465 5.485 -1.465 5.485 -5 7 C-5 8.65 -5 10.3 -5 12 C-7.01822917 11.96744792 -9.03645833 11.93489583 -11.0546875 11.90234375 C-13.08185404 11.87350758 -13.08185404 11.87350758 -15 13 C-15.66 12.34 -16.32 11.68 -17 11 C-16.28082397 10.55346069 -16.28082397 10.55346069 -15.54711914 10.09790039 C-13.38470639 8.75416593 -11.22358963 7.40836126 -9.0625 6.0625 C-7.93038086 5.35963867 -7.93038086 5.35963867 -6.77539062 4.64257812 C-6.05673828 4.19462891 -5.33808594 3.74667969 -4.59765625 3.28515625 C-3.93258057 2.87144775 -3.26750488 2.45773926 -2.58227539 2.03149414 C-1.02514658 1.09387816 -1.02514658 1.09387816 0 0 Z " fill="#F4F4F0" transform="translate(163,180)"/>
<path d="M0 0 C0.97582031 0.00902344 1.95164063 0.01804688 2.95703125 0.02734375 C3.69308594 0.03894531 4.42914063 0.05054687 5.1875 0.0625 C4.5275 2.0425 3.8675 4.0225 3.1875 6.0625 C-6.22252278 5.09894647 -6.22252278 5.09894647 -10.8125 4.0625 C-10.8125 3.0725 -10.8125 2.0825 -10.8125 1.0625 C-7.13862505 0.20951624 -3.7677607 -0.04539471 0 0 Z " fill="#ED1F2C" transform="translate(173.8125,1.9375)"/>
<path d="M0 0 C3.68069887 1.53643852 5.98775204 3.78150945 8.75 6.625 C9.54921875 7.44226563 10.3484375 8.25953125 11.171875 9.1015625 C12.07679687 10.04128906 12.07679687 10.04128906 13 11 C12.34 11.66 11.68 12.32 11 13 C8.625 12.3125 8.625 12.3125 6 11 C4.6875 8.375 4.6875 8.375 4 6 C2.68 6.33 1.36 6.66 0 7 C0 4.66666667 0 2.33333333 0 0 Z " fill="#F7ECE8" transform="translate(27,137)"/>
<path d="M0 0 C0.99 0.33 1.98 0.66 3 1 C1.57573507 2.66164242 0.15138349 4.3232093 -1.2734375 5.984375 C-2.40537007 7.30581665 -3.53563964 8.62868503 -4.6640625 9.953125 C-5.44910156 10.87351562 -5.44910156 10.87351562 -6.25 11.8125 C-6.72953125 12.37582031 -7.2090625 12.93914063 -7.703125 13.51953125 C-8.75610282 14.7215752 -9.87002833 15.87002833 -11 17 C-10.125 11.25 -10.125 11.25 -9 9 C-9.66 8.67 -10.32 8.34 -11 8 C-9.35 8 -7.7 8 -6 8 C-5.67 6.68 -5.34 5.36 -5 4 C-4.360625 3.896875 -3.72125 3.79375 -3.0625 3.6875 C-2.381875 3.460625 -1.70125 3.23375 -1 3 C-0.67 2.01 -0.34 1.02 0 0 Z " fill="#F9ECE9" transform="translate(23,17)"/>
<path d="M0 0 C3 3 3 3 3.328125 5.63671875 C3.30234375 6.64347656 3.2765625 7.65023437 3.25 8.6875 C3.22421875 9.74839844 3.1984375 10.80929688 3.171875 11.90234375 C2.96399929 15.64883101 2.57044596 19.29210123 2 23 C1.01 22.67 0.02 22.34 -1 22 C-0.67 14.74 -0.34 7.48 0 0 Z " fill="#F8D6D4" transform="translate(241,62)"/>
<path d="M0 0 C2.31 0 4.62 0 7 0 C7.33 0.99 7.66 1.98 8 3 C9.32 3.33 10.64 3.66 12 4 C8.04 5.32 4.08 6.64 0 8 C0.33 6.35 0.66 4.7 1 3 C0.67 2.01 0.34 1.02 0 0 Z " fill="#F8F3F0" transform="translate(40,1)"/>
<path d="M0 0 C0.66 0.33 1.32 0.66 2 1 C2.625 3.0625 2.625 3.0625 3 5 C1.5437455 5.67119549 0.08492133 6.33681807 -1.375 7 C-2.59316406 7.556875 -2.59316406 7.556875 -3.8359375 8.125 C-6 9 -6 9 -8 9 C-8.33 9.66 -8.66 10.32 -9 11 C-9.66 10.34 -10.32 9.68 -11 9 C-7.37 6.03 -3.74 3.06 0 0 Z " fill="#F9EFED" transform="translate(189,161)"/>
<path d="M0 0 C1.32 0.33 2.64 0.66 4 1 C4.22577402 6.4185766 3.46670113 10.77487721 2 16 C1.67 16 1.34 16 1 16 C0.14701624 12.32612505 -0.10789471 8.9552607 -0.0625 5.1875 C-0.05347656 4.21167969 -0.04445312 3.23585938 -0.03515625 2.23046875 C-0.02355469 1.49441406 -0.01195313 0.75835937 0 0 Z " fill="#EC3342" transform="translate(2,64)"/>
<path d="M0 0 C3.44216672 2.6598561 3.99504674 5.90288286 5 10 C4.67 10.33 4.34 10.66 4 11 C4 11.33 4 11.66 4 12 C2.35 12 0.7 12 -1 12 C-1.02698189 10.37509046 -1.04638757 8.75005367 -1.0625 7.125 C-1.07410156 6.22007813 -1.08570312 5.31515625 -1.09765625 4.3828125 C-1 2 -1 2 0 0 Z " fill="#EB3D3E" transform="translate(113,28)"/>
<path d="M0 0 C3.63 1.98 7.26 3.96 11 6 C10.67 6.66 10.34 7.32 10 8 C8.68 8 7.36 8 6 8 C5.67 7.67 5.34 7.34 5 7 C4.01 7 3.02 7 2 7 C2 6.34 2 5.68 2 5 C0.68 4.34 -0.64 3.68 -2 3 C-1.34 3 -0.68 3 0 3 C0 2.01 0 1.02 0 0 Z " fill="#F7EDED" transform="translate(99,192)"/>
<path d="M0 0 C0.433125 0.639375 0.86625 1.27875 1.3125 1.9375 C2.91239177 4.26746003 2.91239177 4.26746003 6 5 C6 8.63 6 12.26 6 16 C3.99615009 12.99422513 2.73880258 10.15022736 1.375 6.8125 C0.92898437 5.72582031 0.48296875 4.63914062 0.0234375 3.51953125 C-0.31429687 2.68808594 -0.65203125 1.85664062 -1 1 C-0.67 0.67 -0.34 0.34 0 0 Z " fill="#FBF1EF" transform="translate(233,33)"/>
<path d="M0 0 C9.24 0 18.48 0 28 0 C28 0.33 28 0.66 28 1 C19.09 1.66 10.18 2.32 1 3 C0.67 2.01 0.34 1.02 0 0 Z " fill="#FCFCF0" transform="translate(52,1)"/>
<path d="M0 0 C1.65 0 3.3 0 5 0 C5 0.99 5 1.98 5 3 C5.61875 3.2475 6.2375 3.495 6.875 3.75 C9.4072196 5.23954094 9.80718658 6.37581048 11 9 C12.5412312 10.70921589 12.5412312 10.70921589 14 12 C11 12 11 12 8.30078125 9.62890625 C7.29691517 8.61440318 6.30108274 7.59190164 5.3125 6.5625 C4.80138672 6.04623047 4.29027344 5.52996094 3.76367188 4.99804688 C0 1.15397613 0 1.15397613 0 0 Z " fill="#E21D2B" transform="translate(30,138)"/>
<path d="M0 0 C0.99 0.33 1.98 0.66 3 1 C4.23076923 6.41538462 4.23076923 6.41538462 3.0625 9.375 C2.711875 9.91125 2.36125 10.4475 2 11 C1.67 9.68 1.34 8.36 1 7 C-0.98 7.99 -0.98 7.99 -3 9 C-2.01 6.03 -1.02 3.06 0 0 Z " fill="#F5F5F2" transform="translate(236,100)"/>
<path d="M0 0 C0.66 0.33 1.32 0.66 2 1 C1.67 2.98 1.34 4.96 1 7 C-2.99500618 5.6302836 -5.80009492 3.74277578 -9 1 C-6.66705225 0.95758277 -4.33297433 0.95907063 -2 1 C-1.67 1.33 -1.34 1.66 -1 2 C-0.67 1.34 -0.34 0.68 0 0 Z " fill="#F7F3F0" transform="translate(214,8)"/>
<path d="M0 0 C-0.33 1.65 -0.66 3.3 -1 5 C-4.3 4.34 -7.6 3.68 -11 3 C-6.577168 -0.317124 -5.28089024 -0.30466674 0 0 Z " fill="#FBEBEB" transform="translate(195,0)"/>
<path d="M0 0 C0.66 1.65 1.32 3.3 2 5 C1.01 5.99 0.02 6.98 -1 8 C-1.33 7.34 -1.66 6.68 -2 6 C-5.18490007 5.7226499 -5.18490007 5.7226499 -8 8 C-6.48291727 4.46014029 -4.24676932 0 0 0 Z " fill="#DE2029" transform="translate(143,12)"/>
<path d="M0 0 C4.875 1.75 4.875 1.75 6 4 C5.38125 4.144375 4.7625 4.28875 4.125 4.4375 C1.96741678 4.93152225 1.96741678 4.93152225 0 6 C-2.125 5.5625 -2.125 5.5625 -4 5 C-3.34 3.68 -2.68 2.36 -2 1 C-1.67 1.33 -1.34 1.66 -1 2 C-0.67 1.34 -0.34 0.68 0 0 Z " fill="#F7F3F2" transform="translate(44,154)"/>
<path d="M0 0 C1.423125 0.495 1.423125 0.495 2.875 1 C5.77062452 2.10159191 5.77062452 2.10159191 8 2 C7.34 3.65 6.68 5.3 6 7 C5.01 6.67 4.02 6.34 3 6 C3 5.34 3 4.68 3 4 C2.34 4 1.68 4 1 4 C0.67 2.68 0.34 1.36 0 0 Z " fill="#E31D25" transform="translate(217,120)"/>
<path d="M0 0 C3.3 1.98 6.6 3.96 10 6 C9.67 6.66 9.34 7.32 9 8 C7.68 8 6.36 8 5 8 C0 2.77272727 0 2.77272727 0 0 Z " fill="#F7EBE3" transform="translate(80,180)"/>
<path d="M0 0 C0 1.98 0 3.96 0 6 C-1.98 6 -3.96 6 -6 6 C-6 5.01 -6 4.02 -6 3 C-2.66666667 0 -2.66666667 0 0 0 Z " fill="#EC333A" transform="translate(136,26)"/>
<path d="M0 0 C1.32 0.66 2.64 1.32 4 2 C-0.46726453 5.31442207 -4.62007164 5.66009167 -10 6 C-7.18945091 2.84444339 -5.14460219 2.63070033 -1 2 C-0.67 1.34 -0.34 0.68 0 0 Z " fill="#EE1D28" transform="translate(138,192)"/>
<path d="M0 0 C1.67542976 0.28604898 3.34385343 0.61781233 5 1 C5 1.66 5 2.32 5 3 C2.69 4.32 0.38 5.64 -2 7 C-1.125 1.125 -1.125 1.125 0 0 Z " fill="#F8ECEB" transform="translate(32,8)"/>
<path d="M0 0 C0.66 1.32 1.32 2.64 2 4 C-4.5 7.125 -4.5 7.125 -9 6 C-6.03 4.02 -3.06 2.04 0 0 Z " fill="#F7E8E5" transform="translate(163,180)"/>
<path d="M0 0 C0.66 0.33 1.32 0.66 2 1 C0.515 2.485 0.515 2.485 -1 4 C-1.66 3.67 -2.32 3.34 -3 3 C-3 3.66 -3 4.32 -3 5 C-3.66 5 -4.32 5 -5 5 C-5.33 5.99 -5.66 6.98 -6 8 C-6.99 7.01 -7.98 6.02 -9 5 C-7.54735962 4.1361871 -6.0876837 3.28419546 -4.625 2.4375 C-3.40683594 1.72400391 -3.40683594 1.72400391 -2.1640625 0.99609375 C-1.44992188 0.66738281 -0.73578125 0.33867187 0 0 Z " fill="#F6E6E1" transform="translate(141,194)"/>
<path d="M0 0 C1.32 0.66 2.64 1.32 4 2 C1.81956172 4.18043828 0.97566473 4.56240225 -2 5 C-4.25 4.5625 -4.25 4.5625 -6 4 C-4.02 2.68 -2.04 1.36 0 0 Z " fill="#F9EDEB" transform="translate(172,174)"/>
<path d="M0 0 C1.98 0.66 3.96 1.32 6 2 C4.35 3.65 2.7 5.3 1 7 C0.34 6.34 -0.32 5.68 -1 5 C-0.625 2.375 -0.625 2.375 0 0 Z " fill="#FAEFEF" transform="translate(137,9)"/>
<path d="M0 0 C0 0.33 0 0.66 0 1 C-4.76307437 1.95261487 -9.1666528 2.08333357 -14 2 C-8.42686087 -0.78656957 -6.23082583 -0.90447472 0 0 Z " fill="#F7E9DF" transform="translate(174,1)"/>
<path d="M0 0 C-1.1875 1.5625 -1.1875 1.5625 -3 3 C-5.6875 2.6875 -5.6875 2.6875 -8 2 C-8 1.34 -8 0.68 -8 0 C-5.13822943 -1.43088528 -3.06624227 -0.59991697 0 0 Z " fill="#F12E36" transform="translate(160,178)"/>
<path d="M0 0 C0.6875 1.8125 0.6875 1.8125 1 4 C-0.3125 5.75 -0.3125 5.75 -2 7 C-2.66 7 -3.32 7 -4 7 C-3.39816251 4.97954558 -2.72693904 2.97888961 -2 1 C-1.34 0.67 -0.68 0.34 0 0 Z " fill="#E81E2C" transform="translate(204,144)"/>
<path d="M0 0 C0.66 0.99 1.32 1.98 2 3 C1.34 4.32 0.68 5.64 0 7 C-0.99 6.67 -1.98 6.34 -3 6 C-2.42655063 3.13275314 -2.1385485 2.1385485 0 0 Z " fill="#EE3643" transform="translate(23,20)"/>
<path d="M0 0 C3.96 0.33 7.92 0.66 12 1 C12 1.33 12 1.66 12 2 C8.37 2.33 4.74 2.66 1 3 C0.67 2.01 0.34 1.02 0 0 Z " fill="#F6D6D4" transform="translate(52,1)"/>
<path d="M0 0 C2.88437779 1.29299694 4.87219421 2.65941363 7 5 C5.68 5 4.36 5 3 5 C3 4.34 3 3.68 3 3 C2.01 3.33 1.02 3.66 0 4 C0 2.68 0 1.36 0 0 Z " fill="#F9EAE5" transform="translate(53,161)"/>
<path d="M0 0 C1.31223496 3.93670488 0.24296256 6.12488144 -1 10 C-1.99 8.68 -2.98 7.36 -4 6 C-2.89131683 3.78263366 -1.50559539 1.96382007 0 0 Z " fill="#FBF1EC" transform="translate(5,46)"/>
<path d="M0 0 C3.16115776 1.36983503 3.9927092 1.9890638 6 5 C5.01 5.495 5.01 5.495 4 6 C2 4.6875 2 4.6875 0 3 C0 2.01 0 1.02 0 0 Z " fill="#EA1927" transform="translate(104,15)"/>
<path d="M0 0 C0.99 0.99 1.98 1.98 3 3 C0 5 0 5 -3 5 C-3 4.01 -3 3.02 -3 2 C-2.01 2 -1.02 2 0 2 C0 1.34 0 0.68 0 0 Z " fill="#F9F9F4" transform="translate(78,179)"/>
<path d="M0 0 C3.76488042 1.72154788 6.15063897 3.99234114 9 7 C6 7 6 7 4.39453125 5.46875 C3.87246094 4.8190625 3.35039063 4.169375 2.8125 3.5 C2.28269531 2.8503125 1.75289062 2.200625 1.20703125 1.53125 C0.80871094 1.0259375 0.41039062 0.520625 0 0 Z " fill="#E81026" transform="translate(35,143)"/>
<path d="M0 0 C2.40072955 2.88087546 4.47291037 5.56404834 6 9 C4 9 4 9 1.875 7.3125 C0 5 0 5 -0.25 2.25 C-0.1675 1.5075 -0.085 0.765 0 0 Z " fill="#F9E3DB" transform="translate(17,121)"/>
<path d="M0 0 C1.5 1.3125 1.5 1.3125 3 3 C3 3.99 3 4.98 3 6 C1.68 6 0.36 6 -1 6 C-0.67 4.02 -0.34 2.04 0 0 Z " fill="#ED3238" transform="translate(113,28)"/>
</svg>
