<?xml version="1.0" standalone="no"?>
<!DOCTYPE svg PUBLIC "-//W3C//DTD SVG 20010904//EN"
 "http://www.w3.org/TR/2001/REC-SVG-20010904/DTD/svg10.dtd">
<svg version="1.0" xmlns="http://www.w3.org/2000/svg"
 width="225.000000pt" height="225.000000pt" viewBox="0 0 225.000000 225.000000"
 preserveAspectRatio="xMidYMid meet">

<g transform="translate(0.000000,225.000000) scale(0.100000,-0.100000)"
fill="#000000" stroke="none">
<path d="M674 1830 c-216 -43 -333 -247 -275 -478 54 -217 195 -413 548 -765
l178 -177 196 197 c272 274 348 366 442 528 72 124 101 221 101 335 1 88 -1
100 -32 162 -55 112 -148 178 -281 198 -76 12 -171 1 -224 -27 -49 -25 -114
-91 -157 -159 -22 -35 -42 -64 -45 -64 -3 0 -23 29 -45 64 -43 68 -109 134
-158 160 -29 15 -145 37 -187 35 -11 -1 -38 -5 -61 -9z"/>
</g>
</svg>
